<?xml version="1.0" standalone="no"?>
<!DOCTYPE svg PUBLIC "-//W3C//DTD SVG 20010904//EN"
 "http://www.w3.org/TR/2001/REC-SVG-20010904/DTD/svg10.dtd">
<svg version="1.0" xmlns="http://www.w3.org/2000/svg"
 width="1080.000000pt" height="1080.000000pt" viewBox="0 0 1080.000000 1080.000000"
 preserveAspectRatio="xMidYMid meet">

<g transform="translate(0.000000,1080.000000) scale(0.100000,-0.100000)"
fill="#000000" stroke="none">
<path d="M0 10120 l0 -680 59 0 59 0 4 40 c2 22 0 40 -3 40 -4 0 -9 21 -11 46
-3 37 1 49 17 63 12 9 24 23 27 32 5 13 22 16 90 16 45 0 65 -2 43 -4 -30 -3
-43 -10 -50 -26 -6 -12 -19 -23 -30 -25 -11 -1 -25 -14 -31 -27 -13 -27 -3
-35 42 -35 21 0 24 4 24 39 l0 38 61 7 c34 3 124 6 200 6 117 0 139 2 139 15
0 12 16 15 80 15 l80 0 0 40 0 40 40 0 40 0 0 40 0 40 66 0 65 0 -2 -52 c-2
-33 3 -63 11 -78 l15 -25 3 38 c2 25 8 37 18 37 12 0 15 10 13 46 -3 40 0 49
24 68 15 12 27 27 27 34 0 9 41 12 160 12 l160 0 0 80 0 80 80 0 80 0 0 -40 0
-40 80 0 80 0 0 40 0 40 40 0 c36 0 40 2 40 25 0 23 2 24 20 13 37 -23 48 20
24 100 -3 12 -2 22 3 22 5 0 15 -22 23 -49 11 -43 16 -49 31 -40 10 5 27 9 38
9 12 0 21 7 21 15 0 11 -11 15 -40 15 -36 0 -40 3 -40 25 0 23 4 25 40 25 29
0 40 -4 40 -15 0 -11 11 -15 40 -15 29 0 40 4 40 15 0 12 16 15 80 15 l80 0 0
39 c0 22 -3 41 -7 44 -5 2 -2 2 5 0 17 -4 82 48 82 65 0 9 31 12 119 12 l120
0 3 38 3 37 78 3 c64 2 77 0 77 -13 0 -11 11 -15 40 -15 29 0 40 4 40 15 0 11
11 15 40 15 32 0 40 -4 40 -19 0 -14 6 -17 25 -13 27 5 33 17 13 25 -7 3 20 6
61 6 l74 1 59 61 c48 50 63 60 82 55 16 -4 31 1 50 19 26 24 29 24 202 23 154
-1 178 1 186 16 11 20 48 21 48 1 0 -11 11 -15 40 -15 29 0 40 -4 40 -15 0 -8
5 -15 10 -15 6 0 10 7 10 15 0 8 5 15 10 15 6 0 10 7 10 15 0 37 18 40 191 37
147 -3 169 -1 169 13 0 8 -7 15 -16 15 -15 0 -44 23 -44 34 0 3 14 6 30 6 17
0 30 -4 30 -10 0 -15 29 -12 46 4 8 8 14 22 14 30 0 14 -203 16 -2110 16
l-2110 0 0 -680z m4000 630 c0 -5 -4 -10 -10 -10 -5 0 -10 5 -10 10 0 6 5 10
10 10 6 0 10 -4 10 -10z m-400 -40 c0 -17 -7 -20 -40 -20 -54 0 -56 27 -2 33
20 2 38 4 40 5 1 1 2 -7 2 -18z m-250 -45 c0 -8 -7 -15 -15 -15 -13 0 -14 3
-3 15 16 18 18 18 18 0z m-713 -47 c-3 -8 -6 -5 -6 6 -1 11 2 17 5 13 3 -3 4
-12 1 -19z m103 13 c0 -6 -4 -13 -10 -16 -5 -3 -10 1 -10 9 0 9 5 16 10 16 6
0 10 -4 10 -9z m-200 -56 c0 -8 -4 -15 -10 -15 -5 0 -10 7 -10 15 0 8 5 15 10
15 6 0 10 -7 10 -15z m552 -27 c-9 -9 -15 -9 -24 0 -9 9 -7 12 12 12 19 0 21
-3 12 -12z m-40 -40 c-9 -9 -12 -7 -12 12 0 19 3 21 12 12 9 -9 9 -15 0 -24z
m-1056 -175 c15 -15 34 -17 34 -4 0 12 29 41 41 41 5 0 9 -11 9 -25 0 -21 -6
-26 -40 -31 -52 -8 -51 -20 3 -32 23 -6 32 -10 20 -11 -28 -1 -39 -18 -16 -24
10 -3 3 -5 -14 -6 -18 0 -33 4 -33 10 0 6 -17 28 -38 48 -21 20 -37 35 -34 34
2 -1 13 8 25 20 16 16 22 18 25 7 3 -8 11 -20 18 -27z m-476 -33 c0 -5 -4 -10
-9 -10 -6 0 -13 5 -16 10 -3 6 1 10 9 10 9 0 16 -4 16 -10z m-213 -56 c-3 -3
-12 -4 -19 -1 -8 3 -5 6 6 6 11 1 17 -2 13 -5z m160 0 c-3 -3 -12 -4 -19 -1
-8 3 -5 6 6 6 11 1 17 -2 13 -5z m385 -49 c2 -19 0 -35 -4 -35 -4 0 -8 16 -8
35 0 19 2 35 4 35 2 0 6 -16 8 -35z m-842 -211 c-8 -8 -22 -20 -32 -25 -15 -8
-18 -6 -18 16 0 21 4 25 31 25 27 0 30 -2 19 -16z m110 -39 c0 -22 -4 -25 -32
-25 l-33 1 28 24 c35 31 37 31 37 0z m-110 -41 c-8 -8 -22 -20 -32 -25 -15 -8
-18 -6 -18 16 0 21 4 25 31 25 27 0 30 -2 19 -16z m-550 -170 c0 -4 -10 -15
-22 -25 -11 -11 -19 -19 -17 -20 47 -9 58 -8 63 8 4 14 4 14 3 -2 -2 -19 -15
-22 -74 -16 -31 3 -3 60 30 61 9 0 17 -3 17 -6z m-380 -124 c0 -5 -4 -10 -10
-10 -5 0 -10 5 -10 10 0 6 5 10 10 10 6 0 10 -4 10 -10z"/>
<path d="M4273 10765 c-18 -19 -33 -37 -33 -40 0 -3 18 -5 40 -5 l40 0 0 40
c0 22 -3 40 -7 39 -5 0 -23 -16 -40 -34z"/>
<path d="M3326 10595 c-19 -14 -19 -15 7 -15 17 0 27 5 27 15 0 19 -9 19 -34
0z"/>
<path d="M3730 10581 c0 -12 6 -21 15 -21 8 0 15 3 15 6 0 3 -7 12 -15 20 -13
14 -15 13 -15 -5z"/>
<path d="M3810 10556 c0 -2 7 -6 15 -10 8 -3 15 -1 15 4 0 6 -7 10 -15 10 -8
0 -15 -2 -15 -4z"/>
<path d="M3153 10525 c-23 -26 -15 -45 17 -45 20 0 30 5 30 15 0 8 5 15 11 15
6 0 4 7 -5 15 -18 19 -37 19 -53 0z"/>
<path d="M3318 10509 c-27 -15 -21 -29 12 -29 23 0 30 4 30 20 0 22 -15 25
-42 9z"/>
<path d="M3484 10465 c16 -9 32 -13 35 -10 8 9 -21 25 -44 25 -16 0 -14 -3 9
-15z"/>
<path d="M2960 10429 c0 -19 -4 -20 -32 -15 -95 18 -128 19 -128 2 0 -14 15
-16 110 -16 61 0 110 4 110 9 0 8 -43 41 -55 41 -3 0 -5 -10 -5 -21z"/>
<path d="M3470 10430 c0 -5 4 -10 9 -10 6 0 13 5 16 10 3 6 -1 10 -9 10 -9 0
-16 -4 -16 -10z"/>
<path d="M2660 10360 c0 -29 4 -40 15 -40 11 0 15 11 15 40 0 29 -4 40 -15 40
-11 0 -15 -11 -15 -40z"/>
<path d="M2713 10360 c0 -25 2 -35 4 -22 2 12 2 32 0 45 -2 12 -4 2 -4 -23z"/>
<path d="M2400 10280 c0 -29 4 -40 15 -40 11 0 15 11 15 40 0 29 -4 40 -15 40
-11 0 -15 -11 -15 -40z"/>
<path d="M2480 10280 c0 -29 4 -40 15 -40 11 0 15 11 15 40 0 29 -4 40 -15 40
-11 0 -15 -11 -15 -40z"/>
<path d="M864 9665 c-16 -12 -17 -14 -3 -15 9 0 19 7 23 15 7 19 5 19 -20 0z"/>
<path d="M160 9639 c0 -11 4 -18 10 -14 5 3 7 12 3 20 -7 21 -13 19 -13 -6z"/>
<path d="M236 9535 c-3 -9 0 -15 9 -15 8 0 15 7 15 15 0 8 -4 15 -9 15 -5 0
-11 -7 -15 -15z"/>
<path d="M160 9340 c0 -5 5 -10 11 -10 5 0 7 5 4 10 -3 6 -8 10 -11 10 -2 0
-4 -4 -4 -10z"/>
<path d="M82 1090 c0 -19 2 -27 5 -17 2 9 2 25 0 35 -3 9 -5 1 -5 -18z"/>
<path d="M231 1073 c-13 -14 -12 -15 12 -9 22 5 27 3 28 -11 0 -16 2 -15 9 2
5 11 9 23 9 28 2 14 -44 6 -58 -10z"/>
<path d="M0 531 l0 -531 5400 0 5400 0 0 489 0 489 -27 0 c-33 0 -62 -14 -84
-40 -9 -10 -21 -18 -27 -18 -6 0 -13 -6 -15 -12 -3 -7 -6 5 -6 27 l-1 39 -22
-23 c-16 -16 -19 -25 -10 -28 24 -9 11 -23 -22 -23 -30 0 -35 4 -41 29 -7 33
-26 39 -102 32 -35 -2 -43 -7 -43 -23 0 -17 6 -19 58 -17 50 3 57 1 60 -17 4
-37 -108 -73 -122 -39 -4 12 4 15 39 15 27 0 45 5 45 11 0 17 -151 1 -172 -18
-11 -9 -18 -11 -23 -4 -8 14 -60 -12 -68 -34 -4 -8 -13 -15 -22 -15 -8 0 -15
-6 -15 -12 0 -9 -3 -8 -10 2 -5 9 -5 19 1 26 7 8 6 14 -1 19 -15 9 -12 25 5
25 9 0 12 6 8 16 -6 15 -7 15 -19 -1 -8 -11 -26 -17 -48 -17 -24 0 -36 -5 -36
-14 0 -10 -12 -14 -40 -14 -22 0 -40 -4 -40 -10 0 -5 -18 -10 -40 -10 -29 0
-40 -4 -40 -15 0 -12 -14 -15 -70 -15 -67 0 -95 14 -47 23 13 3 7 5 -16 6 -21
0 -47 6 -59 12 -22 12 -68 4 -68 -11 0 -6 23 -10 50 -10 43 0 50 -3 50 -19 0
-11 6 -22 13 -24 7 -3 5 -6 -5 -6 -10 -1 -18 6 -18 14 0 8 -6 15 -14 15 -9 0
-17 -15 -21 -40 -9 -53 -25 -51 -26 3 l-2 42 -6 -35 -7 -35 -20 32 c-10 18
-27 33 -36 33 -10 0 -18 6 -18 13 0 21 -148 10 -173 -14 -11 -10 -42 -22 -69
-25 -38 -5 -48 -10 -46 -23 2 -9 14 -18 27 -19 19 -3 21 -6 10 -13 -10 -6 -10
-9 -1 -9 6 0 12 -7 12 -16 0 -13 -6 -15 -27 -9 -16 5 -35 8 -44 9 -10 0 -15 6
-11 14 4 12 -3 14 -34 10 -33 -4 -43 0 -66 24 -35 37 -89 39 -122 3 -15 -16
-23 -20 -23 -10 0 8 5 15 11 15 6 0 5 5 -2 12 -18 18 -14 30 6 17 14 -9 24 -9
38 -1 14 9 15 12 4 13 -43 5 -58 8 -92 23 -32 14 -38 14 -38 2 0 -8 -14 -21
-30 -30 -17 -8 -28 -11 -25 -6 3 4 -3 11 -12 14 -9 4 -20 2 -23 -5 -6 -8 -13
-8 -29 0 -23 13 -41 7 -41 -12 0 -7 4 -6 10 3 5 8 12 11 17 7 4 -5 1 -12 -7
-17 -21 -14 -30 -12 -30 4 0 8 -4 17 -9 20 -5 4 -7 -3 -4 -14 3 -12 0 -20 -6
-20 -7 0 -10 4 -7 9 3 5 -9 7 -27 6 -38 -3 -54 4 -36 16 8 5 10 9 4 9 -5 0
-17 -5 -25 -10 -13 -8 -12 -11 5 -24 19 -15 19 -15 -3 -9 -13 3 -26 12 -29 19
-3 8 -9 11 -14 8 -14 -8 -11 -26 3 -19 7 3 3 -2 -10 -11 -12 -9 -38 -18 -57
-20 -20 -2 -40 -6 -45 -9 -13 -8 -3 -25 13 -25 7 0 6 4 -3 10 -9 6 -10 10 -3
10 6 0 15 -5 18 -10 4 -6 11 -8 16 -4 5 3 7 10 4 15 -4 5 -1 9 4 9 19 0 12
-19 -14 -36 -23 -15 -26 -15 -57 7 -18 13 -27 16 -20 7 10 -13 9 -16 -9 -21
-26 -7 -16 -27 14 -27 21 0 21 0 2 -14 -23 -15 -85 -10 -85 8 -1 16 -36 56
-50 56 -6 0 -8 5 -4 12 5 8 2 9 -10 5 -10 -4 -25 -7 -33 -7 -13 0 -13 -3 -3
-15 11 -13 15 -13 21 -3 7 10 12 9 25 -4 16 -16 16 -17 -10 -14 -15 2 -37 11
-48 20 -17 15 -22 16 -29 5 -7 -11 -9 -11 -9 -1 0 7 -5 10 -10 7 -6 -4 -8 -10
-6 -14 7 -11 -40 -35 -53 -27 -10 7 -15 -8 -14 -41 1 -17 -44 -17 -50 -1 -3 7
-6 1 -6 -13 -1 -30 -25 -57 -36 -39 -3 5 1 10 9 10 9 0 16 9 16 21 0 18 -2 18
-25 -7 -14 -15 -25 -32 -26 -38 -1 -6 -5 0 -9 14 -6 18 -8 20 -9 7 -1 -10 -5
-16 -10 -13 -4 3 -7 18 -5 33 4 24 3 25 -5 8 -9 -19 -10 -19 -10 3 -1 15 5 22
18 22 10 0 21 9 24 20 7 27 25 25 30 -2 3 -18 5 -16 6 7 0 18 9 35 21 43 12 7
18 17 15 23 -8 12 18 7 27 -6 4 -6 8 -2 8 8 0 9 6 27 13 38 10 17 10 23 0 26
-7 3 -13 16 -13 29 0 14 -4 23 -9 19 -5 -3 -12 -1 -16 5 -3 5 -16 10 -28 10
-18 0 -19 2 -7 11 12 8 9 10 -13 6 -33 -5 -45 8 -20 22 14 8 15 10 3 11 -8 0
-30 16 -47 35 -18 19 -37 35 -42 35 -5 0 -16 7 -25 15 -16 16 -71 11 -60 -6 8
-13 -17 -11 -48 5 -23 12 -26 12 -21 -1 5 -13 1 -12 -21 2 -22 14 -29 16 -35
6 -5 -7 -12 -13 -17 -14 -5 -1 -8 -5 -6 -9 1 -5 -2 -8 -7 -8 -9 0 -7 -43 4
-60 4 -7 16 -9 27 -7 15 4 17 3 8 -8 -6 -8 -20 -12 -31 -10 -10 2 -19 -1 -19
-6 0 -6 -5 -7 -12 -3 -6 4 -8 3 -5 -2 3 -6 1 -16 -4 -24 -8 -13 -11 -12 -20 3
-8 14 -18 17 -41 12 -17 -4 -28 -3 -25 1 3 5 -10 9 -28 10 -29 0 -33 -2 -29
-23 2 -13 0 -23 -6 -23 -7 0 -8 -6 -1 -18 7 -14 6 -19 -5 -20 -7 -1 -20 -3
-28 -4 -8 -1 -12 -7 -9 -15 5 -14 -13 -19 -19 -5 -1 4 -11 0 -20 -10 -10 -10
-13 -18 -8 -18 6 0 3 -11 -6 -25 -13 -20 -20 -23 -30 -14 -8 6 -11 15 -8 20 7
12 -50 66 -64 61 -6 -2 -9 -9 -6 -17 3 -7 1 -16 -5 -20 -6 -3 -9 0 -5 8 3 8 1
18 -5 22 -7 4 -5 14 5 30 14 21 14 26 2 39 -21 21 -47 3 -40 -29 3 -18 0 -25
-12 -25 -19 0 -18 -3 -7 36 8 29 7 30 -15 26 -26 -5 -31 -21 -12 -40 9 -9 8
-12 -6 -12 -15 0 -17 -5 -12 -26 4 -14 3 -23 -1 -21 -5 3 -13 -6 -20 -19 -6
-13 -7 -22 -2 -18 5 3 9 1 9 -5 0 -5 -9 -9 -19 -8 -18 1 -18 4 -6 33 12 30 12
32 -12 43 -21 10 -25 9 -30 -8 -3 -11 -11 -22 -19 -25 -11 -4 -11 -1 2 18 11
18 12 26 3 32 -8 4 -9 3 -5 -4 9 -15 5 -15 -28 -2 -21 8 -27 6 -36 -10 -6 -11
-18 -20 -28 -19 -10 0 -12 3 -5 6 10 3 10 7 0 18 -9 10 -16 10 -27 2 -8 -6
-12 -8 -8 -3 10 12 -8 43 -29 48 -15 4 -18 -1 -17 -21 2 -37 -2 -41 -36 -31
-33 9 -73 2 -64 -11 3 -5 0 -9 -6 -9 -6 0 -8 -5 -5 -10 3 -6 2 -10 -3 -10 -5
0 -15 11 -22 25 -15 28 -23 31 -38 13 -12 -16 9 -113 22 -101 5 4 7 2 4 -6 -2
-8 7 -25 20 -38 14 -14 21 -30 18 -39 -3 -8 -2 -12 4 -9 5 3 8 -3 7 -13 -1
-15 -5 -17 -24 -8 -12 6 -18 13 -13 14 18 6 10 20 -15 26 -14 4 -25 14 -26 24
0 10 -3 12 -6 5 -2 -7 -12 -13 -21 -14 -14 0 -13 -2 3 -9 17 -8 15 -9 -10 -7
-20 1 -29 7 -27 17 2 11 -1 11 -11 -2 -16 -21 -37 -24 -37 -6 0 17 -30 -28
-35 -52 -2 -13 2 -20 11 -20 8 0 13 -4 10 -9 -3 -5 3 -11 14 -14 11 -3 20 -11
20 -19 0 -10 -3 -9 -10 2 -6 10 -10 11 -10 3 0 -7 -10 -13 -22 -13 -19 0 -20
2 -8 10 12 8 9 10 -13 10 -22 0 -27 4 -23 18 8 24 -4 39 -38 48 -21 5 -27 4
-22 -5 4 -6 13 -11 21 -11 7 0 15 -7 19 -15 5 -13 2 -14 -16 -3 -11 7 -37 22
-57 33 -19 11 -41 31 -47 43 -8 17 -13 20 -17 10 -4 -9 -6 -10 -6 0 -1 6 -11
12 -23 12 -22 -1 -23 -1 -4 -15 11 -8 16 -15 11 -15 -5 0 -17 7 -27 17 -14 13
-18 13 -18 2 0 -11 -2 -11 -11 1 -8 12 -10 9 -6 -13 3 -20 1 -25 -8 -17 -7 6
-15 6 -22 -1 -7 -7 -17 -8 -25 -3 -7 5 -29 9 -48 9 -31 0 -35 3 -37 29 -3 36
-22 58 -20 23 1 -14 6 -23 11 -19 5 3 6 0 2 -7 -4 -6 -12 -9 -17 -5 -5 3 -7
10 -4 15 4 5 1 9 -4 9 -6 0 -11 8 -12 18 0 14 -2 14 -9 -3 -5 -11 -9 -15 -9
-10 -1 6 -14 18 -31 27 l-29 16 10 -26 c8 -23 7 -24 -4 -11 -10 13 -15 14 -24
4 -8 -9 -9 -15 0 -24 22 -22 -9 -32 -94 -29 -61 2 -83 6 -82 16 4 16 -9 16
-26 0 -11 -10 -14 -10 -18 0 -6 15 -55 16 -71 0 -9 -9 -11 -7 -7 9 3 21 -18
38 -35 28 -4 -3 -11 3 -15 13 -6 16 -7 16 -21 -2 -8 -11 -14 -15 -14 -9 0 6
-23 10 -61 9 -57 -2 -61 -1 -75 26 -8 16 -12 33 -8 39 4 7 -4 9 -23 6 -26 -4
-29 -2 -26 18 5 25 -27 41 -46 22 -6 -6 -11 -7 -11 -3 0 5 -8 2 -17 -5 -11
-10 -14 -10 -9 -1 4 6 3 12 -3 12 -5 0 -13 -4 -16 -10 -11 -17 -20 -11 -21 16
-2 33 -10 40 -27 25 -15 -12 -47 -5 -60 13 -5 7 -12 5 -21 -6 -15 -20 -26 -14
-26 14 0 19 -16 25 -22 8 -2 -6 -17 -12 -34 -14 -28 -4 -30 -2 -26 20 2 13 1
24 -3 24 -21 0 -74 -43 -79 -65 -3 -13 -15 -26 -26 -30 -10 -3 -17 -12 -14
-20 10 -25 -19 -29 -38 -5 -11 13 -18 17 -18 9 0 -11 -2 -11 -10 1 -6 9 -10
10 -10 3 0 -6 -9 -10 -19 -8 -14 3 -18 -1 -14 -11 3 -10 0 -12 -10 -8 -9 3
-14 14 -12 25 5 23 -3 24 -33 3 -15 -10 -22 -11 -22 -3 0 7 -10 9 -29 6 -19
-4 -31 -2 -34 6 -2 8 -13 6 -33 -8 -16 -11 -40 -21 -54 -22 -14 -1 -37 -4 -52
-7 -16 -3 -28 -1 -28 4 0 6 -4 10 -10 10 -5 0 -7 -7 -4 -15 4 -8 4 -15 2 -15
-9 0 -45 35 -51 50 -4 12 -6 11 -6 -2 -1 -10 -5 -18 -11 -18 -5 0 -10 -8 -10
-17 0 -15 -2 -16 -10 -3 -9 13 -10 13 -11 0 0 -8 -5 -4 -9 10 -7 23 -8 23 -9
3 -1 -12 -5 -24 -10 -28 -6 -3 -8 10 -6 32 3 21 2 30 -1 21 -3 -10 -13 -18
-22 -19 -11 0 -12 -2 -4 -6 32 -13 -3 -55 -36 -42 -13 5 -21 5 -18 0 7 -11
-22 -36 -31 -27 -3 3 -1 6 5 6 7 0 12 6 12 13 0 20 -38 47 -65 47 -14 0 -25 5
-25 10 0 18 -22 10 -27 -9 -4 -18 -21 -30 -41 -31 -7 0 -8 4 -11 34 -1 15 -41
10 -41 -5 0 -5 -6 -8 -12 -6 -8 1 -12 -8 -12 -23 2 -23 1 -23 -12 -5 -9 12
-27 19 -49 19 -19 1 -35 4 -35 8 0 8 -27 4 -37 -5 -4 -4 -12 2 -19 14 -10 20
-11 18 -9 -18 3 -38 0 -42 -37 -67 -22 -15 -43 -24 -47 -21 -3 3 1 10 9 15 8
5 11 12 7 16 -3 4 -13 2 -20 -5 -11 -9 -17 -8 -27 4 -7 8 -19 15 -27 15 -12 0
-13 -11 -8 -57 5 -53 4 -56 -9 -38 -10 14 -13 34 -9 66 l5 46 -38 -3 c-21 -2
-40 -8 -42 -14 -2 -5 -21 -10 -43 -10 -21 0 -39 -4 -39 -10 0 -14 -63 -13 -95
2 -30 13 -33 28 -5 28 11 0 20 5 20 11 0 6 -15 9 -34 8 -19 -2 -39 1 -43 5 -4
5 -3 7 2 3 6 -3 17 -2 24 3 9 5 -1 10 -29 15 -36 6 -46 4 -57 -11 -11 -15 -11
-20 -1 -23 7 -2 19 -11 28 -20 13 -13 13 -14 -3 -8 -10 4 -27 7 -38 7 -13 0
-17 5 -12 16 6 17 -16 66 -27 59 -4 -2 -12 7 -19 21 -9 20 -9 24 1 19 7 -4 2
3 -12 14 -23 19 -23 21 -5 21 12 1 4 7 -20 15 -30 11 -41 11 -47 2 -5 -9 -10
-8 -20 2 -10 10 -10 12 0 7 6 -4 12 -3 12 2 0 5 -13 9 -30 9 -16 0 -27 -4 -24
-8 2 -4 1 -9 -3 -12 -5 -2 -2 -2 5 -1 6 2 12 -1 12 -6 0 -22 -80 -13 -106 12
-23 20 -39 12 -28 -15 3 -8 1 -18 -5 -22 -6 -3 -11 -1 -11 6 0 7 -7 4 -15 -7
-8 -10 -15 -14 -15 -7 0 7 -12 11 -27 9 -27 -2 -63 18 -63 35 0 5 8 6 18 3 11
-4 13 -3 5 3 -7 5 -25 9 -40 8 -16 0 -33 5 -38 13 -8 10 -18 10 -52 -2 -23 -8
-50 -13 -60 -12 -10 2 -21 -2 -25 -8 -5 -8 -8 -7 -8 2 0 17 -29 15 -36 -3 -5
-11 -10 -13 -19 -5 -9 7 -21 6 -41 -6 l-29 -16 30 6 30 6 -26 -14 c-15 -9 -36
-12 -49 -9 -22 6 -23 7 -4 14 16 6 14 8 -10 8 -28 1 -29 2 -10 16 18 14 18 14
-3 8 -13 -3 -23 -11 -23 -17 0 -16 -38 -47 -69 -56 -20 -5 -26 -13 -24 -33 1
-18 -3 -27 -13 -27 -8 0 -14 7 -14 15 0 8 -18 23 -40 32 -25 11 -40 24 -40 35
0 16 -10 18 -80 18 -64 0 -80 -3 -80 -15 0 -23 -77 -21 -83 3 -4 13 -5 11 -6
-5 -1 -28 -21 -31 -21 -3 0 11 -4 20 -10 20 -5 0 -10 -9 -10 -20 0 -11 -4 -20
-10 -20 -5 0 -10 8 -10 19 0 21 -34 31 -106 31 -25 0 -53 5 -64 12 -15 9 -24
9 -42 -1 -19 -9 -30 -10 -53 0 -43 17 -65 20 -65 9 0 -6 6 -10 14 -10 13 0 28
-45 18 -55 -12 -11 -50 -4 -56 11 -4 11 -14 15 -31 12 -19 -4 -25 -1 -25 13 0
15 -8 19 -42 21 -58 2 -63 1 -93 -6 -22 -6 -25 -3 -25 18 0 23 2 24 32 15 44
-12 48 -12 48 9 0 14 -9 17 -45 17 -36 0 -45 -3 -45 -17 0 -10 -5 -18 -11 -18
-7 0 -8 11 -3 32 6 29 5 31 -10 19 -9 -7 -16 -24 -16 -37 0 -31 -16 -39 -38
-18 -16 17 -16 18 1 11 12 -5 17 -1 17 12 0 26 -8 30 -41 18 -17 -7 -27 -17
-25 -24 4 -9 -5 -13 -29 -13 -19 0 -35 5 -35 10 0 6 5 10 10 10 6 0 10 5 10
10 0 6 -13 10 -30 10 -16 0 -30 -4 -30 -9 0 -13 -108 -21 -141 -9 -24 8 -28
14 -24 32 6 20 5 20 -6 2 -9 -15 -9 -24 0 -38 6 -10 8 -18 3 -18 -14 0 -30 37
-22 50 9 15 4 30 -10 30 -5 0 -6 -8 -3 -17 6 -15 5 -16 -9 -3 -9 8 -12 16 -7
18 15 6 10 22 -7 22 -12 0 -15 -7 -12 -25 3 -13 2 -22 -3 -20 -4 3 -10 -1 -13
-7 -4 -7 -5 -4 -3 7 3 15 -2 21 -17 23 -11 0 -24 -4 -28 -11 -6 -9 -8 -9 -8 0
0 7 -7 10 -17 6 -10 -3 -15 -3 -11 2 4 4 2 15 -5 23 -10 13 -9 15 6 9 19 -7
24 8 4 16 -9 4 -8 8 3 16 8 6 11 11 5 11 -5 -1 -18 -7 -28 -14 -10 -8 -26 -12
-36 -9 -10 3 -22 0 -25 -6 -5 -7 2 -11 16 -12 14 -1 17 -3 7 -6 -8 -2 -26 1
-40 6 -17 7 -19 10 -6 10 9 1 17 7 17 15 0 20 -17 29 -24 14 -5 -11 -7 -11
-12 0 -8 17 -24 5 -17 -13 3 -8 0 -15 -6 -15 -6 0 -11 6 -11 13 0 8 -4 7 -10
-3 -9 -13 -10 -13 -10 0 -1 12 -3 11 -11 -2 -12 -22 -29 -23 -29 -4 0 8 -5 18
-12 22 -7 5 -9 2 -5 -9 3 -9 -1 -18 -10 -21 -10 -4 -13 -2 -10 8 4 9 -2 14
-19 14 -13 0 -24 -6 -24 -14 0 -7 -5 -16 -12 -20 -7 -5 -8 -3 -3 6 5 8 4 11
-3 6 -6 -4 -9 -13 -5 -21 5 -14 -7 -19 -36 -16 -7 2 -11 -2 -8 -6 3 -5 -3 -10
-14 -10 -18 -2 -23 7 -19 36 1 9 -4 12 -15 7 -60 -23 -105 -12 -105 24 0 11
-8 24 -19 29 -16 9 -17 7 -13 -14 4 -23 1 -25 -37 -25 -34 0 -41 -3 -41 -20 0
-11 -7 -20 -15 -20 -8 0 -15 -4 -15 -10 0 -5 -15 -10 -34 -10 -19 0 -38 5 -41
10 -3 6 -17 10 -31 10 -21 0 -24 4 -24 39 0 22 -6 44 -15 51 -12 10 -15 10
-15 0 0 -13 -16 -12 -97 6 l-33 6 0 -531z m424 347 c-3 -10 -10 -18 -17 -18
-8 0 -8 3 0 11 6 6 9 28 7 48 -4 36 -4 36 6 6 5 -16 7 -38 4 -47z m80 49 c-6
-16 -34 -13 -34 4 0 4 7 6 15 3 8 -4 15 -1 15 7 0 7 2 10 5 7 3 -3 3 -12 -1
-21z m7346 -40 c0 -4 -6 -2 -14 5 -8 7 -12 17 -9 22 5 8 23 -12 23 -27z
m-7393 1 c-3 -8 -6 -5 -6 6 -1 11 2 17 5 13 3 -3 4 -12 1 -19z m693 -12 c0 -2
-7 -7 -16 -10 -8 -3 -12 -2 -9 4 6 10 25 14 25 6z m20 -11 c0 -8 -7 -15 -15
-15 -13 0 -14 3 -3 15 16 18 18 18 18 0z m77 9 c-3 -3 -12 -4 -19 -1 -8 3 -5
6 6 6 11 1 17 -2 13 -5z m9443 -15 c0 -11 -4 -17 -10 -14 -5 3 -10 13 -10 21
0 8 5 14 10 14 6 0 10 -9 10 -21z m-9592 -3 c-7 -8 -15 -12 -17 -11 -5 6 10
25 20 25 5 0 4 -6 -3 -14z m1881 -4 c7 -14 6 -19 -3 -19 -6 0 -13 9 -13 19 -1
10 0 18 2 18 2 0 9 -8 14 -18z m171 -1 c7 -14 7 -22 -2 -27 -6 -4 -8 -3 -4 4
3 6 2 13 -4 17 -10 6 -14 25 -5 25 2 0 9 -9 15 -19z m-1950 5 c0 -3 -4 -8 -10
-11 -5 -3 -10 -1 -10 4 0 6 5 11 10 11 6 0 10 -2 10 -4z m1643 -3 c-7 -2 -19
-2 -25 0 -7 3 -2 5 12 5 14 0 19 -2 13 -5z m7297 -3 c0 -5 -4 -10 -10 -10 -5
0 -10 5 -10 10 0 6 5 10 10 10 6 0 10 -4 10 -10z m210 0 c0 -5 -4 -10 -9 -10
-6 0 -13 5 -16 10 -3 6 1 10 9 10 9 0 16 -4 16 -10z m-9080 -26 c0 -2 -9 -4
-21 -4 -11 0 -18 4 -14 10 5 8 35 3 35 -6z m8837 10 c-3 -3 -12 -4 -19 -1 -8
3 -5 6 6 6 11 1 17 -2 13 -5z m-2392 -14 c-4 -6 6 -7 25 -4 23 5 30 3 30 -9 0
-34 -61 -46 -66 -13 -3 20 3 36 12 36 3 0 2 -4 -1 -10z m335 -10 c0 -5 -4 -10
-9 -10 -6 0 -13 5 -16 10 -3 6 1 10 9 10 9 0 16 -4 16 -10z m-6804 -25 c9 -8
11 -15 6 -15 -5 0 -15 7 -22 15 -7 8 -9 15 -6 15 4 0 14 -7 22 -15z m44 9 c0
-8 -19 -13 -24 -6 -3 5 1 9 9 9 8 0 15 -2 15 -3z m5808 -66 c-11 -22 -15 -23
-15 -3 0 8 5 15 11 15 6 0 6 4 -1 11 -6 6 -9 19 -5 28 5 13 7 11 12 -9 4 -14
3 -33 -2 -42z m692 52 c0 -5 -5 -10 -11 -10 -5 0 -7 5 -4 10 3 6 8 10 11 10 2
0 4 -4 4 -10z m1810 -8 c0 -9 -7 -11 -20 -7 -30 9 -60 -4 -60 -26 0 -15 -7
-19 -34 -19 -19 0 -43 -3 -53 -6 -13 -4 -14 -3 -5 4 11 7 10 10 -3 16 -9 3
-28 6 -41 6 -13 0 -24 5 -24 11 0 7 13 8 39 4 29 -5 40 -3 44 9 9 24 157 31
157 8z m-8366 -11 c3 -5 -1 -14 -8 -20 -12 -10 -13 -8 -9 8 6 23 9 25 17 12z
m8606 -6 c0 -8 -6 -15 -14 -15 -17 0 -28 14 -19 24 12 12 33 6 33 -9z m-8630
-1 c0 -8 -19 -13 -24 -6 -3 5 1 9 9 9 8 0 15 -2 15 -3z m5736 -21 c-10 -10
-19 5 -10 18 6 11 8 11 12 0 2 -7 1 -15 -2 -18z m-3521 8 c3 -5 1 -12 -5 -16
-5 -3 -10 1 -10 9 0 18 6 21 15 7z m5740 -1 c7 -12 -2 -12 -30 0 -19 8 -19 9
2 9 12 1 25 -3 28 -9z m-7315 -28 c0 -5 -7 -9 -15 -9 -8 0 -12 4 -9 9 3 4 9 8
15 8 5 0 9 -4 9 -8z m477 -14 c-3 -8 -6 -5 -6 6 -1 11 2 17 5 13 3 -3 4 -12 1
-19z m171 8 c3 -3 -3 -6 -14 -6 -16 0 -17 -2 -4 -11 12 -9 11 -10 -5 -4 -11 4
-26 10 -34 13 -10 4 -12 1 -6 -7 6 -10 3 -11 -12 -2 -11 6 -23 7 -27 4 -3 -3
-6 -1 -6 6 0 8 7 10 21 6 13 -4 19 -3 16 3 -7 10 60 8 71 -2z m37 4 c3 -6 -1
-7 -9 -4 -18 7 -21 14 -7 14 6 0 13 -4 16 -10z m4815 0 c0 -5 -5 -10 -11 -10
-5 0 -7 5 -4 10 3 6 8 10 11 10 2 0 4 -4 4 -10z m2050 0 c0 -5 -4 -10 -10 -10
-5 0 -10 5 -10 10 0 6 5 10 10 10 6 0 10 -4 10 -10z m-8066 -14 c-10 -8 -21
-12 -24 -10 -5 6 21 24 34 24 6 0 1 -6 -10 -14z m393 -1 c0 -8 -4 -12 -9 -9
-5 3 -6 10 -3 15 9 13 12 11 12 -6z m393 5 c0 -5 -5 -10 -11 -10 -5 0 -7 5 -4
10 3 6 8 10 11 10 2 0 4 -4 4 -10z m41 -17 c-12 -20 -14 -14 -5 12 4 9 9 14
11 11 3 -2 0 -13 -6 -23z m7019 16 c-12 -8 -10 -9 10 -5 36 9 67 14 51 9 -12
-4 -12 -6 0 -13 7 -5 10 -12 6 -17 -5 -4 -12 -1 -16 6 -7 11 -15 11 -42 2 -18
-6 -35 -9 -37 -6 -3 3 0 5 6 5 7 0 11 3 11 8 -3 15 1 22 14 22 8 0 7 -4 -3
-11z m-2039 -14 c5 4 6 -2 2 -11 -5 -13 -3 -15 7 -9 9 5 11 4 6 -3 -4 -7 -2
-12 3 -12 6 0 11 -6 11 -12 0 -7 -12 0 -25 15 -14 15 -25 33 -24 40 0 9 2 8 6
-1 2 -6 9 -10 14 -7z m-4606 -13 c-3 -3 -11 0 -18 7 -9 10 -8 11 6 5 10 -3 15
-9 12 -12z m4712 -4 c-3 -8 -6 -5 -6 6 -1 11 2 17 5 13 3 -3 4 -12 1 -19z
m567 7 c-4 -8 -11 -12 -16 -9 -6 4 -5 10 3 15 19 12 19 11 13 -6z m771 5 c-3
-5 -12 -10 -18 -10 -7 0 -6 4 3 10 19 12 23 12 15 0z m-4799 -15 c14 -13 13
-15 -5 -15 -12 0 -21 6 -21 15 0 8 3 15 6 15 3 0 12 -7 20 -15z m-1971 -5 c3
-5 1 -10 -4 -10 -6 0 -11 5 -11 10 0 6 2 10 4 10 3 0 8 -4 11 -10z m6575 1 c0
-6 -4 -13 -10 -16 -5 -3 -10 1 -10 9 0 9 5 16 10 16 6 0 10 -4 10 -9z m-1424
-39 c-9 -8 -26 10 -26 26 1 15 2 15 15 -2 8 -11 13 -21 11 -24z m1239 28 c3
-5 -1 -10 -10 -10 -9 0 -13 5 -10 10 3 6 8 10 10 10 2 0 7 -4 10 -10z m-4220
-10 c3 -5 1 -10 -4 -10 -6 0 -11 5 -11 10 0 6 2 10 4 10 3 0 8 -4 11 -10z
m-477 -36 c-3 -14 -5 -12 -10 9 -3 19 -2 25 4 19 6 -6 8 -18 6 -28z m2269 21
c0 -8 -4 -12 -9 -9 -5 3 -6 10 -3 15 9 13 12 11 12 -6z m73 1 c0 -2 -9 -6 -20
-9 -11 -3 -18 -1 -14 4 5 9 34 13 34 5z m1705 -7 c11 -17 -1 -21 -15 -4 -8 9
-8 15 -2 15 6 0 14 -5 17 -11z m949 -4 c3 -8 1 -15 -4 -15 -6 0 -10 7 -10 15
0 8 2 15 4 15 2 0 6 -7 10 -15z m-4492 -9 c7 4 8 2 4 -4 -4 -6 -13 -9 -21 -6
-8 4 -12 11 -8 17 5 8 8 7 11 -1 2 -7 9 -9 14 -6z m1895 -11 c-4 -10 -18 -15
-39 -14 -22 1 -26 3 -11 6 12 2 27 11 34 19 14 17 24 11 16 -11z m2566 18 c-7
-2 -21 -2 -30 0 -10 3 -4 5 12 5 17 0 24 -2 18 -5z m-1506 -9 c-3 -3 -12 -4
-19 -1 -8 3 -5 6 6 6 11 1 17 -2 13 -5z m568 -3 c3 -5 2 -12 -3 -15 -5 -3 -9
1 -9 9 0 17 3 19 12 6z m840 -1 c-3 -5 -14 -10 -23 -10 -15 0 -15 2 -2 10 20
13 33 13 25 0z m-4592 -7 c-7 -2 -19 -2 -25 0 -7 3 -2 5 12 5 14 0 19 -2 13
-5z m2311 -8 c3 -8 1 -15 -4 -15 -6 0 -10 7 -10 15 0 8 2 15 4 15 2 0 6 -7 10
-15z m716 5 c0 -5 -6 -10 -12 -10 -7 -1 -3 -9 9 -19 20 -17 21 -20 6 -25 -9
-4 -18 -4 -21 -1 -3 3 0 5 7 5 7 0 9 5 6 10 -4 6 -10 8 -15 5 -13 -8 -18 18
-6 32 13 15 26 17 26 3z m-3190 -4 c0 -2 -7 -7 -16 -10 -8 -3 -12 -2 -9 4 6
10 25 14 25 6z m3117 -2 c-3 -3 -12 -4 -19 -1 -8 3 -5 6 6 6 11 1 17 -2 13 -5z
m1680 -10 c-3 -3 -12 -4 -19 -1 -8 3 -5 6 6 6 11 1 17 -2 13 -5z m-1952 -14
c3 -5 1 -10 -4 -10 -6 0 -11 5 -11 10 0 6 2 10 4 10 3 0 8 -4 11 -10z m429 -5
c3 -8 1 -15 -4 -15 -6 0 -10 7 -10 15 0 8 2 15 4 15 2 0 6 -7 10 -15z m-831
-2 c-7 -2 -21 -2 -30 0 -10 3 -4 5 12 5 17 0 24 -2 18 -5z m64 -45 c-3 -8 -6
-5 -6 6 -1 11 2 17 5 13 3 -3 4 -12 1 -19z m4073 -23 c0 -6 -6 -12 -12 -13 -7
-1 -25 -4 -40 -8 -32 -7 -37 9 -12 37 13 14 20 16 40 7 13 -6 24 -16 24 -23z
m-4102 -12 c-6 -7 -16 -13 -22 -13 -6 0 -3 5 6 11 10 5 15 17 12 27 -5 14 -4
14 4 2 8 -10 8 -18 0 -27z m302 -43 c0 -5 -7 -10 -16 -10 -8 0 -12 5 -9 10 3
6 10 10 16 10 5 0 9 -4 9 -10z m308 -68 c-1 -18 -5 -35 -9 -38 -11 -7 -21 33
-14 56 4 12 2 20 -5 20 -6 0 -8 -4 -5 -10 3 -5 1 -10 -4 -10 -18 0 -12 28 7
32 23 5 31 -10 30 -50z m-760 3 c0 -48 -21 -64 -33 -25 -4 13 -15 20 -33 20
-18 0 -23 3 -14 9 7 4 24 6 36 4 17 -4 25 1 29 16 9 34 15 24 15 -24z m675 10
c-3 -9 -8 -14 -10 -11 -3 3 -2 9 2 15 9 16 15 13 8 -4z m-4710 -320 c-4 -13
-173 -19 -173 -6 0 13 34 19 110 17 38 0 64 -5 63 -11z"/>
<path d="M10150 495 c0 -16 16 -20 24 -6 3 5 -1 11 -9 15 -9 3 -15 0 -15 -9z"/>
<path d="M320 1050 c0 -5 5 -10 11 -10 5 0 7 5 4 10 -3 6 -8 10 -11 10 -2 0
-4 -4 -4 -10z"/>
<path d="M463 1053 c9 -2 23 -2 30 0 6 3 -1 5 -18 5 -16 0 -22 -2 -12 -5z"/>
<path d="M10792 1020 c0 -14 2 -19 5 -12 2 6 2 18 0 25 -3 6 -5 1 -5 -13z"/>
<path d="M741 1014 c0 -11 3 -14 6 -6 3 7 2 16 -1 19 -3 4 -6 -2 -5 -13z"/>
<path d="M895 1020 c3 -5 8 -10 11 -10 2 0 4 5 4 10 0 6 -5 10 -11 10 -5 0 -7
-4 -4 -10z"/>
<path d="M10480 1010 c0 -5 5 -10 11 -10 5 0 7 5 4 10 -3 6 -8 10 -11 10 -2 0
-4 -4 -4 -10z"/>
<path d="M10525 1000 c3 -5 8 -10 11 -10 2 0 4 5 4 10 0 6 -5 10 -11 10 -5 0
-7 -4 -4 -10z"/>
<path d="M1155 940 c-17 -7 -15 -9 13 -9 17 -1 32 4 32 9 0 12 -17 12 -45 0z"/>
<path d="M9920 926 c0 -21 13 -26 27 -11 10 10 9 14 -3 19 -22 8 -24 8 -24 -8z"/>
<path d="M10000 914 c0 -17 22 -14 28 4 2 7 -3 12 -12 12 -9 0 -16 -7 -16 -16z"/>
<path d="M1950 899 c0 -11 4 -18 10 -14 5 3 7 12 3 20 -7 21 -13 19 -13 -6z"/>
<path d="M10231 894 c0 -11 3 -14 6 -6 3 7 2 16 -1 19 -3 4 -6 -2 -5 -13z"/>
<path d="M1995 880 c3 -5 16 -10 28 -10 18 0 19 2 7 10 -20 13 -43 13 -35 0z"/>
<path d="M2568 873 c7 -3 16 -2 19 1 4 3 -2 6 -13 5 -11 0 -14 -3 -6 -6z"/>
<path d="M2665 870 c-13 -6 -15 -9 -5 -9 8 0 22 4 30 9 18 12 2 12 -25 0z"/>
<path d="M2456 838 c-21 -30 -20 -38 4 -38 16 0 20 7 20 30 0 36 -4 37 -24 8z"/>
<path d="M2560 850 c0 -5 5 -10 10 -10 6 0 10 5 10 10 0 6 -4 10 -10 10 -5 0
-10 -4 -10 -10z"/>
<path d="M3418 853 c7 -3 16 -2 19 1 4 3 -2 6 -13 5 -11 0 -14 -3 -6 -6z"/>
<path d="M3408 798 c-7 -17 15 -19 29 -3 4 4 3 5 -4 2 -6 -4 -13 -2 -15 5 -3
8 -6 6 -10 -4z"/>
<path d="M9257 780 c-3 -13 0 -20 9 -20 8 0 14 9 14 20 0 11 -4 20 -9 20 -5 0
-11 -9 -14 -20z"/>
<path d="M9138 783 c6 -2 18 -2 25 0 6 3 1 5 -13 5 -14 0 -19 -2 -12 -5z"/>
<path d="M4135 750 c3 -5 10 -10 16 -10 5 0 9 5 9 10 0 6 -7 10 -16 10 -8 0
-12 -4 -9 -10z"/>
<path d="M8598 753 c7 -3 16 -2 19 1 4 3 -2 6 -13 5 -11 0 -14 -3 -6 -6z"/>
<path d="M6086 693 c-6 -14 -5 -15 5 -6 7 7 10 15 7 18 -3 3 -9 -2 -12 -12z"/>
<path d="M8151 644 c0 -11 3 -14 6 -6 3 7 2 16 -1 19 -3 4 -6 -2 -5 -13z"/>
<path d="M6327 618 c-6 -22 0 -23 19 -4 18 18 18 23 0 23 -8 0 -17 -9 -19 -19z"/>
<path d="M6515 590 c3 -5 8 -10 11 -10 2 0 4 5 4 10 0 6 -5 10 -11 10 -5 0 -7
-4 -4 -10z"/>
</g>
</svg>
